<?xml version="1.0" encoding="UTF-8"?>
<svg xmlns="http://www.w3.org/2000/svg" xmlns:xlink="http://www.w3.org/1999/xlink" width="16pt" height="16pt" viewBox="0 0 16 16" version="1.1">
<g id="surface1">
<path style=" stroke:none;fill-rule:nonzero;fill:rgb(16.470588%,52.941176%,69.411765%);fill-opacity:1;" d="M 11.238281 4.515625 C 11 4.277344 10.617188 4.277344 10.378906 4.515625 L 6.929688 7.964844 L 7.792969 8.824219 L 11.238281 5.371094 C 11.472656 5.140625 11.472656 4.75 11.238281 4.515625 Z M 13.832031 4.511719 L 7.792969 10.546875 L 5.664062 8.429688 C 5.425781 8.1875 5.042969 8.1875 4.804688 8.429688 C 4.566406 8.667969 4.566406 9.050781 4.804688 9.289062 L 7.359375 11.84375 C 7.597656 12.082031 7.980469 12.082031 8.21875 11.84375 L 14.691406 5.378906 C 14.929688 5.140625 14.929688 4.753906 14.691406 4.515625 L 14.6875 4.515625 C 14.453125 4.273438 14.070312 4.273438 13.832031 4.511719 Z M 1.351562 9.296875 L 3.90625 11.851562 C 4.144531 12.089844 4.527344 12.089844 4.765625 11.851562 L 5.195312 11.421875 L 2.210938 8.429688 C 1.972656 8.1875 1.589844 8.1875 1.351562 8.429688 C 1.113281 8.667969 1.113281 9.058594 1.351562 9.296875 Z M 1.351562 9.296875 "/>
</g>
</svg>
